<svg xmlns="http://www.w3.org/2000/svg" width="52" height="51" viewBox="0 0 52 51">
    <defs>
        <linearGradient id="prefix__a" x1="50%" x2="50%" y1="-63.471%" y2="100%">
            <stop offset="0%" stop-color="#FDD90E"/>
            <stop offset="100%" stop-color="#FAB206"/>
        </linearGradient>
    </defs>
    <g fill="none" fill-rule="evenodd">
        <circle cx="25" cy="25" r="25" fill="url(#prefix__a)"/>
        <g fill-rule="nonzero">
            <circle cx="25" cy="25" r="25" fill="#FAB206"/>
            <path fill="#B3B3B3" d="M21.515 24.358h6.968l.039.477-3.406 5.162-3.658-5.213.057-.425z"/>
            <path fill="#F0BA7D" d="M21.56 23.063L21.5 25.975 16.56 28.677 16.56 38.58 24.876 38.58 33.192 38.58 33.192 28.677 28.601 25.823 28.349 22.912 21.56 23.063 21.56 23.063z"/>
            <path fill="#FED298" d="M19.277 14.571s-.283-.622-1.043-.313c-.761.308.034 3.383.324 3.813.29.428.759.156.929.14.242 1.833.264 3.096.998 3.87.695.732 2.286 2.223 3.125 2.744.568.12.991.19 1.39.211.398-.02.822-.091 1.39-.211.838-.52 2.43-2.012 3.125-2.744.734-.774.756-2.037.998-3.87.17.016.638.288.929-.14.29-.43 1.085-3.505.324-3.813-.76-.31-1.043.313-1.043.313s.751-2.415-.585-4.792c-.916-1.63-3.005-2.475-5.138-2.537-2.133.062-4.222.907-5.138 2.537-1.336 2.377-.584 4.792-.584 4.792z"/>
            <path fill="#1BB792" d="M19.077 26.832l1.183-.466.954-.857 3.366 2.553h.839l3.367-2.556 2.136 1.326 3.712 6.31-2.94 15.95c-2.13.59-4.375.908-6.695.908-1.891 0-3.733-.212-5.504-.61l-5.27-15.744 4.852-6.814z"/>
            <g fill="#33E1B8">
                <path d="M9.725 1.718L8.366.042 5.302 3.746 7.932 6.669zM.037 1.688L1.398.042 4.463 3.746 1.728 6.639z" transform="translate(20.117 24.316)"/>
            </g>
            <path fill="#FFF" d="M20.155 26.005l-9.008 2.93c-.367.118-.597.43-.671.808l-2.65 13.423c1.785 1.687 3.817 3.113 6.037 4.22l1.317-4.298c.015-.049.062-.08.114-.074.05.006.09.047.092.099l.19 5.048C18.485 49.346 21.666 50 25 50v-1.676l-4.845-22.32z"/>
            <g fill="#EEF3F7">
                <path d="M3.846.028L2.815.345.081 5.009 3.532 5.117 1.413 6.323 8.692 22.347 3.847.028zM13.534.058l9.01 2.9c.368.118.597.43.672.808l2.649 13.424c-1.784 1.687-3.817 3.113-6.037 4.22l-1.317-4.298c-.015-.05-.063-.08-.114-.074-.05.006-.09.047-.092.099l-.19 5.047c-2.908 1.185-6.09 1.84-9.423 1.84v-1.677L13.533.058z" transform="translate(16.309 25.977)"/>
            </g>
            <path fill="#FFF" d="M29.843 26.034L30.415 26.208 33.608 31.015 30.157 31.123 32.276 32.33 25 48.324 29.842 26.035 29.842 26.034 29.843 26.034z"/>
            <path fill="#D9DADA" d="M26.021 48.219c-.304 0-.55.246-.55.548 0 .304.246.55.55.55.304 0 .55-.246.55-.55 0-.303-.246-.548-.55-.548z"/>
            <path fill="#666" d="M30.066 15.29l.53-.018.17-.605.5-.498c.33-2.483.427-6.348-2.038-6.236 0 0-.222-2.818-4.668-2.266s-6.455 3.423-6.215 5.817c.239 2.395.143 2.685.143 2.685l.499.498.075.688.436-.027s.137-.921.274-1.326.094-1.225.094-1.225 5.251.334 6.67-1.47c.877-1.116 2.89-3.047 2.991-.372.03.793-.265 1.982.3 2.847.564.866.239 1.508.239 1.508z"/>
            <path fill="#139072" d="M25 48.324L26.42 41.79 25.455 28.911 25.98 28.687 25.419 28.063 24.58 28.063 24.004 28.672 24.545 28.911 23.604 41.894 25 48.324z"/>
            <path fill="#FFF" d="M25.972 48.219c-.277 0-.501.224-.501.5s.224.5.501.5.501-.224.501-.5-.224-.5-.5-.5z"/>
            <path fill="#FEFEFE" d="M33.828 39.948c-.976-.169-1.63-1.096-1.462-2.071.168-.976 1.096-1.63 2.071-1.462.976.168 1.63 1.096 1.462 2.072-.169.975-1.096 1.63-2.072 1.46z"/>
            <path fill="#108B6E" d="M33.845 39.845c-.918-.159-1.535-1.032-1.376-1.95.159-.92 1.032-1.536 1.951-1.378.919.16 1.535 1.033 1.376 1.951-.158.92-1.032 1.535-1.95 1.377z"/>
            <path fill="#EBECEC" d="M33.974 39.102c-.509-.088-.85-.571-.762-1.08.088-.508.571-.849 1.08-.761.508.088.849.57.761 1.08-.088.507-.571.848-1.08.76v.001z"/>
            <path fill="#FEFEFE" d="M34.083 37.361L34.494 37.432 34.715 36.154 34.304 36.083z"/>
            <path fill="#1BB792" d="M20.336 40.302l.77-.152c.326-.065.597-.258.77-.516.172-.258.246-.581.181-.908l-.904-4.558c-.342-1.72-1.687-2.596-3.224-2.79-.59-.075-1.207-.048-1.805.07-.6.119-1.18.33-1.695.623-1.343.765-2.249 2.088-1.907 3.81l.905 4.558c.065.326.258.597.516.77.258.172.582.247.908.182l.77-.153-.064-.317-.769.153c-.24.047-.477-.008-.666-.134-.189-.127-.33-.325-.378-.565l-.905-4.557c-.31-1.563.52-2.768 1.749-3.467.485-.277 1.033-.476 1.599-.588.565-.112 1.147-.137 1.702-.067 1.407.178 2.638.975 2.947 2.535l.905 4.557c.047.24-.008.477-.134.666-.127.19-.325.33-.565.378l-.769.153.063.317z"/>
            <path fill="#4D4D4D" d="M21.397 34.844l-.138-.696c-.352-1.773-1.736-2.677-3.317-2.877-.6-.076-1.23-.049-1.839.072-.61.12-1.201.336-1.727.635-1.381.786-2.311 2.148-1.959 3.924l.138.696.528-.105-.138-.696c-.3-1.51.505-2.675 1.696-3.353.476-.27 1.012-.465 1.567-.575.554-.11 1.125-.135 1.668-.066 1.364.172 2.556.942 2.855 2.45l.138.695.528-.105z"/>
            <g fill="#108B6E">
                <path d="M.166 1.683l.412-.082c.103.116.263.176.426.144.245-.05.404-.287.355-.532C1.311.97 1.073.81.83.858c-.164.032-.289.149-.34.295l-.411.082.089.448zM5.82.561l-.412.082c-.051.146-.176.262-.339.295-.245.048-.482-.11-.53-.356-.05-.244.11-.482.354-.53.163-.033.323.027.426.143L5.73.113l.09.448z" transform="translate(14.844 39.746)"/>
            </g>
            <path fill="#666" d="M16.353 31.302l-.157-.79-.312.061-.311.062.158.799c.12-.035.24-.065.361-.089.087-.017.174-.031.261-.043z"/>
            <g fill="#1BB792">
                <path d="M.25 1.146c.075-.015.123-.087.108-.161C.343.91.272.863.198.877.122.892.074.964.09 1.037c.015.075.086.123.16.108zM4.318.337c.074-.015.122-.087.107-.16-.014-.075-.086-.123-.16-.109-.074.015-.122.087-.108.161.015.074.087.122.161.108z" transform="translate(15.43 39.844)"/>
            </g>
            <path fill="#FEFEFE" d="M33.924 39.093c-.481-.082-.803-.54-.72-1.02.082-.481.54-.804 1.02-.72.48.082.803.54.72 1.02-.083.48-.54.803-1.02.72z"/>
            <g fill="#4D4D4D">
                <path d="M4.632.46C4.618.46-.238.502.582 4.75l-.45.086C-.794.046 4.611.002 4.626.002l.005.459zM14.32.024c.793.021 2.324.237 3.503 1.67 1.153 1.404 1.962 3.98 1.357 8.705l-.455-.058c.585-4.572-.171-7.034-1.256-8.355C16.409.696 15.025.502 14.31.482l.01-.458z" transform="translate(15.527 25.781)"/>
            </g>
        </g>
        <g fill-rule="nonzero" transform="translate(34 2)">
            <circle cx="9" cy="9" r="9" fill="#FFF"/>
            <g fill="#325CA8">
                <path d="M5.406 10.48c.722-.673 1.406-1.562 1.989-2.492l.004.002.044-.08.049-.077-.004-.002c.537-.957.99-1.985 1.235-2.942.572-2.23.293-3.505-1.164-4.376L6.848.088c-.296-.177-.682-.079-.859.219L4.51 2.802c-.094.157-.115.326-.063.501.052.175.162.305.325.385 1.085.534 2.019.724 1.088 2.226l-.414.697-.093.156-.413.697c-.873 1.537-1.484.804-2.469.1-.148-.105-.314-.14-.492-.103-.178.038-.316.137-.41.294L.089 10.25c-.177.298-.079.685.217.862l.712.425c1.457.871 2.707.51 4.388-1.057h.001z" transform="translate(5 3)"/>
                <path d="M.087 10.225l1.466-2.44c.092-.153.229-.25.405-.288.176-.036.34-.002.487.101l.17.123L.525 11.2l-.223-.132c-.293-.173-.39-.552-.215-.843zM5.927.3L4.461 2.74c-.092.154-.112.32-.061.49.051.171.16.3.322.377l.189.09L7 .218 6.777.086C6.484-.087 6.102.01 5.927.3z" transform="translate(5 3)"/>
            </g>
        </g>
    </g>
</svg>
