<svg xmlns="http://www.w3.org/2000/svg" width="60" height="60" viewBox="0 0 60 60">
    <g fill="none">
        <circle cx="30" cy="30" r="30" fill="#E9E9E9"/>
        <g transform="translate(8 10.6)">
            <g>
                <path fill="#DCE3DB" d="M0 6c.244-.587 1.417-3.217 3.135-4l.318.95C2.287 3.48 1.388 5.137.985 6H0zm19.016 0c-.404-.863-1.303-2.519-2.47-3.05l.32-.95c1.717.783 2.89 3.413 3.134 4h-.985z" transform="translate(12 1.8)"/>
                <path fill="#2D5192" d="M9.985 0c2.737 0 5.352.488 7.749 1.374.107.04.185.117.23.23.047.11.048.226.004.34L17.27 3.74c-.078.2-.278.303-.468.243-2.137-.683-4.43-1.054-6.817-1.054-2.33 0-4.571.354-6.665 1.006-.181.057-.37-.032-.455-.216L2.044 1.96c-.054-.114-.058-.235-.014-.354.044-.118.125-.202.236-.243C4.655.483 7.259 0 9.986 0z" transform="translate(12 1.8)"/>
                <path fill="#1F4180" d="M17 3.894l-.058.19c-.075.243-.268.369-.451.295-2.056-.83-4.263-1.28-6.558-1.28-2.242 0-4.399.43-6.413 1.222-.175.069-.355-.04-.437-.262L3 3.836C5.162 2.906 7.497 2.4 9.933 2.4c2.486 0 4.868.528 7.067 1.494z" transform="translate(12 1.8)"/>
            </g>
            <path fill="#FAB206" d="M0 8h44v24.887C44 34.599 42.492 36 40.648 36H3.352C1.508 36 0 34.6 0 32.887V8z"/>
            <g fill="#CB9208">
                <path d="M42.01 21.137c-.566.436-1.286.698-2.068.698H3.37c-.782 0-1.502-.262-2.068-.698H42.01zM44 1.79l.003 2.174c0 .485-.386.882-.859.882H.943c-.473 0-.86-.397-.86-.882V2.846c.43.645 1.152 1.07 1.965 1.07h39.99c.814 0 1.533-1.48 1.962-2.125z" transform="translate(0 14)"/>
            </g>
            <path fill="#FAB206" d="M0 8h44v7.586C44 16.914 42.947 18 41.66 18H2.34C1.053 18 0 16.914 0 15.586V8z"/>
            <path fill="#FFB400" d="M0 7.692L44 7.692 44 8.308 0 8.308z"/>
            <circle cx="22" cy="26" r="6" fill="#FFF"/>
            <path fill="#D43160" d="M20.914 22L23.086 22 23.086 24.914 26 24.914 26 27.086 23.086 27.086 23.086 30 20.914 30 20.914 27.086 18 27.086 18 24.914 20.914 24.914z"/>
            <path fill="#CB9208" d="M8 7.7L10 7.7 10 23.313 8 23.313z"/>
            <path fill="#FFF" d="M8 22h2v1.142c0 .472-.188.858-.418.858H8.418c-.23 0-.418-.386-.418-.858V22z"/>
            <path fill="#DCE3DB" d="M9.93 23.6c-.07.246-.173.4-.348.4H8.418c-.175 0-.28-.154-.348-.4h1.86z"/>
            <path fill="#CB9208" d="M34 7.7L36 7.7 36 23.142 34 23.142z"/>
            <path fill="#FFF" d="M34 22h2v1.142c0 .472-.188.858-.418.858h-1.164c-.23 0-.418-.386-.418-.858V22z"/>
            <path fill="#DCE3DB" d="M35.93 23.6c-.07.246-.173.4-.348.4h-1.164c-.175 0-.28-.154-.348-.4h1.86z"/>
            <path fill="#CB9208" d="M2 18.4h.295v1.35H2V18.4zm0 2.16h.295v1.351H2v-1.35zm0 2.162h.295v1.35H2v-1.35zm0 2.161h.295v1.35H2v-1.35zm0 2.161h.295v1.35H2v-1.35zm0 2.162h.295v1.35H2v-1.35zm0 2.161h.295v.71c0 .193.038.4.114.579l-.275.097c-.088-.221-.134-.44-.134-.675v-.711zm.656 2.104c.379.336.91.529 1.436.529v-.27c-.452 0-.908-.166-1.233-.455l-.203.196zm2.32.529v-.27H6.45V34H4.976zm2.358 0v-.27h1.474V34H7.334zm2.358 0v-.27h1.473V34H9.692zm2.358 0v-.27h1.473V34H12.05zm2.357 0v-.27h1.474V34h-1.474zm2.358 0v-.27h1.474V34h-1.474zm2.358 0v-.27h1.473V34h-1.473zm2.358 0v-.27h1.473V34h-1.473zm2.358 0v-.27h1.473V34H23.84zm2.358 0v-.27h1.473V34h-1.473zm2.357 0v-.27h1.474V34h-1.474zm2.358 0v-.27h1.474V34h-1.474zm2.358 0v-.27h1.474V34H33.27zm2.358 0v-.27H37.1V34h-1.473zm2.358 0v-.27h1.473V34h-1.473zm2.387-.05c.516-.1.979-.41 1.273-.807l-.246-.15c-.247.34-.656.609-1.094.695l.067.263zm1.608-1.615v-.002l.002-.011.002-.013.001-.012.001-.012.002-.012.001-.012.001-.012.002-.012v-.013l.001-.012.001-.012.001-.012.001-.012v-.013l.001-.013v-.01l.001-.013V32.1L42 32.09v-1.122h-.295v1.162l-.001.012v.01l-.001.01v.01l-.002.011v.01l-.001.012-.001.01-.001.01-.001.011-.002.01v.01l-.002.011-.001.01-.001.01-.002.011v.002l.292.036zM42 30.157h-.295v-1.35H42v1.35zm0-2.161h-.295v-1.35H42v1.35zm0-2.162h-.295v-1.35H42v1.35zm0-2.16h-.295v-1.352H42v1.351zm0-2.162h-.295V20.16H42v1.35zm0-2.161h-.295V18H42v1.35z"/>
        </g>
    </g>
</svg>
