<svg xmlns="http://www.w3.org/2000/svg" width="50" height="50" viewBox="0 0 50 50">
    <g fill="none" fill-rule="evenodd">
        <circle cx="25" cy="25" r="25" fill="#FAB206" fill-rule="nonzero"/>
        <g>
            <path fill="#FFF" fill-rule="nonzero" d="M30 0H0v15h30V0zm-1.667 13.333H1.667V1.667h26.666v11.666z" transform="translate(20 9)"/>
            <path fill="#1BB792" stroke="#FFF" d="M1.5 1.5H28.5V13.5H1.5z" transform="translate(20 9)"/>
            <path fill="#FFF" fill-rule="nonzero" d="M15 11c1.65 0 3-1.35 3-3s-1.35-3-3-3-3 1.35-3 3 1.35 3 3 3zm0-4.5c.825 0 1.5.675 1.5 1.5s-.675 1.5-1.5 1.5-1.5-.675-1.5-1.5.675-1.5 1.5-1.5zM5 5L7 5 7 3 3 3 3 7 5 7zM7 10L5 10 5 8 3 8 3 12 7 12zM27 8L25 8 25 10 23 10 23 12 27 12zM25 7L27 7 27 3 23 3 23 5 25 5zM7 7L9 7 9 8 7 8zM20 7L22 7 22 8 20 8z" transform="translate(20 9)"/>
        </g>
        <path fill="#1BB792" stroke="#FFF" stroke-width="2" d="M9.444 14c-.733 0-1.33.267-1.754.69-.423.424-.69 1.021-.69 1.754C7 23.51 9.857 29.9 14.479 34.521 19.101 39.143 25.49 42 32.556 42c.733 0 1.33-.267 1.754-.69.423-.424.69-1.021.69-1.754V34.5c0-.733-.267-1.33-.69-1.754-.424-.424-1.021-.69-1.754-.69-1.629 0-3.256-.273-4.884-.816-.714-.238-1.696-.046-2.406.468l-2.72 2.72c-3.363-1.85-6.159-4.757-8.105-8.132l2.644-2.644c.373-.374.605-.816.692-1.249.09-.45.032-.895-.18-1.293-.392-1.471-.653-3.068-.653-4.666 0-.733-.266-1.33-.69-1.754-.423-.423-1.02-.69-1.754-.69H9.444z"/>
    </g>
</svg>
