<svg xmlns="http://www.w3.org/2000/svg" width="25" height="24" viewBox="0 0 25 24">
    <g fill="none">
        <path fill="#325CA8" d="M19.048 1.168v10.973c0 .65-.511 1.176-1.145 1.176H5.248L2.22 16.429v-3.112H1.144C.52 13.317 0 12.792 0 12.14V1.168C0 .525.511 0 1.144 0h16.767c.633-.008 1.137.517 1.137 1.168z"/>
        <g fill="#2B3B4E">
            <path d="M.066.008H14.234V1.008H.066zM.066 2.409H14.234V3.409H.066zM.066 4.802H14.234V5.802H.066zM.066 7.195H6.774V8.195H.066z" transform="translate(2.381 2.738)"/>
        </g>
        <path fill="#FAB206" d="M25 8.02v10.968c0 .643-.511 1.176-1.144 1.176H22.78v3.11l-3.028-3.11H7.097c-.626 0-1.145-.525-1.145-1.176V8.02c0-.642.511-1.175 1.145-1.175h16.766C24.49 6.845 25 7.37 25 8.02z"/>
        <g fill="#FFF">
            <path d="M.052.039H14.219999999999999V1.039H.052zM.052 2.441H14.219999999999999V3.441H.052zM.052 4.834H14.219999999999999V5.834H.052zM.052 7.227H6.76V8.227H.052z" transform="translate(8.333 9.583)"/>
        </g>
    </g>
</svg>
