<svg xmlns="http://www.w3.org/2000/svg" width="30" height="30" viewBox="0 0 30 30">
    <g fill="none">
        <circle cx="15" cy="15" r="15" fill="#FAB206"/>
        <g transform="translate(3.5 6)">
            <path fill="#325CA8" d="M1.544 3.467h19.994c.573 0 1.043.48 1.043 1.066v12.734H.5V4.533c0-.586.469-1.066 1.043-1.066z"/>
            <path fill="#325CA8" d="M7.697 1.683H20.59c.588 0 1.07.455 1.07 1.012v.772H1.42V1.021c0-.172.149-.314.331-.314h5.613c.182 0 .331.142.331.314v.662z"/>
            <path fill="#FFF" d="M3.03 2.547h17.942c.379 0 .689.302.689.671v.25c-.11-.04-.229-.061-.352-.061H2.34v-.189c0-.369.31-.67.689-.67z"/>
            <path fill="#2D5192" d="M22.581 17.038L22.581 17.497 0.501 17.497 0.501 17.038z"/>
            <circle cx="11.081" cy="11.287" r="3.22" fill="#FFF"/>
            <path fill="#D43160" d="M10.706 9.907L11.455 9.907 11.455 10.913 12.461 10.913 12.461 11.662 11.455 11.662 11.455 12.667 10.706 12.667 10.706 11.662 9.701 11.662 9.701 10.913 10.706 10.913 10.706 9.907z"/>
        </g>
    </g>
</svg>
