<svg xmlns="http://www.w3.org/2000/svg" width="30" height="30" viewBox="0 0 30 30">
    <g fill="none">
        <circle cx="14.97" cy="14.97" r="14.97" fill="#FAB206"/>
        <g transform="translate(6.563 1.875)">
            <path fill="#325CA8" d="M0 2.462H16.465V23.826999999999998H0z"/>
            <path fill="#DCE3DB" d="M0.592 3.201L15.372 3.201 15.873 23.184 1.093 23.184z"/>
            <path fill="#FFF" d="M0.839 3.201H15.371V22.692H0.839z"/>
            <path fill="#666" d="M6.325 1.943h3.98c.287 0 .521.234.521.52v1.712H5.804V2.464c0-.287.235-.521.521-.521z"/>
            <path fill="#B0B0B0" d="M5.696 4.045h5.238c.11 0 .2.09.2.2v.001c0 .11-.09.2-.2.2H5.696c-.11 0-.2-.09-.2-.2 0-.11.09-.2.2-.2z"/>
            <path fill="#FEFEFE" d="M7.792 1.424l-.424 2.621H7.15l.423-2.615c-.12-.167-.182-.366-.182-.563 0-.125.025-.25.076-.364.051-.115.128-.22.232-.303.33-.266.901-.267 1.231 0 .104.083.181.188.233.304.05.114.076.24.076.365 0 .196-.06.395-.18.561l.422 2.615h-.218l-.424-2.621c-.006-.034.004-.066.024-.09.107-.134.161-.3.161-.464 0-.097-.019-.193-.057-.28-.038-.085-.095-.162-.17-.223-.251-.203-.713-.202-.964 0-.075.06-.132.137-.17.223-.038.086-.057.181-.057.278 0 .165.056.333.165.468.02.026.027.058.021.088z"/>
            <path fill="#15A180" d="M14.604 7.505L15.859 7.505 15.859 13.744 14.604 13.744z" transform="rotate(36.227 15.232 10.625)"/>
            <g fill="#D43160">
                <path d="M.436 8.249L1.448 8.991.4 9.758.02 9.479zM6.787.082l.534.391c.154.113.187.33.075.484l-2.21 3.017c-.006.008-.017.01-.025.004l-1.064-.78c-.008-.006-.01-.017-.004-.025L6.303.157c.112-.154.33-.188.484-.075z" transform="translate(12.446 4.521)"/>
            </g>
            <path fill="#F64377" d="M19.842 5.479l-2.21 3.017c-.006.007-.016.008-.024.003l-.13-.094 2.4-3.275c.05.11.04.244-.036.349z"/>
            <path fill="#1BB792" d="M12.559 14.069l.194.142-.34.466c-.04.053-.115.065-.169.026-.053-.04-.065-.115-.026-.169l.341-.465z"/>
            <path fill="#FFF" d="M18.736 4.694l1.315.963.07.051-.054.075-2.321 3.169-.022.029-.035.007-.229.05c-.099.01-.141-.146-.029-.176l.194-.043 2.245-3.065-1.243-.91.11-.15z"/>
            <path fill="#054C3B" d="M15.597 7.83L15.753 7.83 15.753 14.069 15.597 14.069z" transform="rotate(36.227 15.675 10.95)"/>
            <g fill="#1BB792">
                <path d="M4.337 1.48c-.068 0-.124-.055-.124-.123s.056-.123.124-.123h2.037L6.83.126c.026-.063.098-.093.16-.067.033.013.056.038.068.068l.679 1.712.577-.977c.034-.059.11-.078.168-.044.019.011.033.026.044.044l.334.513.485-.516c.047-.05.125-.052.174-.005.01.008.017.018.023.029l.197.35h2.642c.068 0 .123.056.123.124s-.055.124-.123.124H9.668c-.043 0-.085-.023-.107-.063l-.15-.268-.478.507c-.006.007-.014.014-.022.02-.057.036-.133.02-.17-.037l-.315-.483-.6 1.018c-.014.025-.036.047-.065.058-.063.025-.135-.006-.16-.07L6.942.502l-.368.894c-.017.05-.063.085-.118.085H4.337zM.009 4.472H4.363V5.472H.009z" transform="translate(2.133 5.342)"/>
            </g>
            <g>
                <path fill="#1BB792" d="M0.007 0.051H1.2269999999999999V1.271H0.007z" transform="translate(2.192 11.142)"/>
                <path fill="#D9DADA" d="M5.193 0.051H6.412999999999999V1.271H5.193z" transform="translate(2.192 11.142)"/>
            </g>
            <path fill="#1BB792" d="M2.143 14.535H6.497V15.535H2.143z"/>
            <g fill="#D9DADA">
                <path d="M.007 4.713H1.2269999999999999V5.933H.007zM5.193 4.713H6.412999999999999V5.933H5.193zM4.018 7.776h8.412v.251H4.018v-.25zm0 1.687h6.087v.251H4.018v-.25zm0-.843h8.412v.25H4.018v-.25zM1.601 4.77h1.914v.251H1.6v-.25zm0 .754h1.385v.25H1.6v-.25zM6.981 4.77h1.914v.251H6.98v-.25zm0 .754h1.385v.25H6.98v-.25zM1.601.028h1.914v.25H1.6v-.25zm0 .754h1.385v.25H1.6v-.25zM6.981.028h1.914v.25H6.98v-.25zm0 .754h1.385v.25H6.98v-.25z" transform="translate(2.192 11.201)"/>
            </g>
            <circle cx="3.436" cy="6.474" r="1.698" fill="#D43160"/>
            <path fill="#FEFEFE" d="M3.107 5.263L3.765 5.263 3.765 6.145 4.647 6.145 4.647 6.803 3.765 6.803 3.765 7.685 3.107 7.685 3.107 6.803 2.225 6.803 2.225 6.145 3.107 6.145z"/>
            <g>
                <path fill="#1BB792" d="M4.935.633c-.028-.028-.028-.074 0-.102.03-.028.075-.028.103 0l.247.252.668-.724c.027-.03.073-.031.103-.004s.031.073.004.102l-.72.78-.002.003c-.029.028-.075.028-.103 0l-.3-.307z" transform="translate(2.543 11.025)"/>
                <path fill="#FAB206" d="M.034.633C.006.605.006.56.034.531.063.503.11.503.137.53l.246.252.669-.724c.027-.03.073-.031.102-.004.03.027.032.073.005.102l-.72.78L.436.94C.408.968.362.968.334.94l-.3-.307z" transform="translate(2.543 11.025)"/>
            </g>
            <g fill="#D43160">
                <path d="M.115.129l.323.323.324-.323C.78.112.803.106.825.112l.03.017c.026.026.026.067 0 .093L.532.545l.323.324c.026.025.026.067 0 .093C.83.987.788.987.762.962L.438.639.115.962C.098.979.075.985.052.979L.022.962C-.003.936-.003.894.022.869L.345.545.022.222C-.003.196-.003.155.022.13.048.103.09.103.115.129zM5.995.043c.032-.031.083-.031.115 0 .032.032.032.083 0 .115l-.399.399.399.398c.032.032.032.084 0 .115-.032.032-.083.032-.115 0L5.596.672l-.398.398c-.024.024-.059.03-.088.018l-.027-.018c-.031-.031-.031-.083 0-.115l.398-.398-.398-.399c-.032-.032-.032-.083 0-.115.032-.031.083-.031.115 0l.398.399z" transform="translate(2.66 15.83)"/>
            </g>
        </g>
    </g>
</svg>
