<svg xmlns="http://www.w3.org/2000/svg" width="30" height="30" viewBox="0 0 30 30">
    <g fill="none">
        <circle cx="15" cy="15" r="15" fill="#FAB206"/>
        <g>
            <path fill="#325CA8" d="M1.034 0h16.27c.57 0 1.035.465 1.035 1.034v9.593c0 .57-.465 1.034-1.034 1.034h-2.457l-1.819 2.277-1.819-2.277H1.034C.465 11.662 0 11.197 0 10.627V1.034C0 .465.465 0 1.034 0z" transform="translate(6 8)"/>
            <path fill="#1BB792" d="M3.283 6.463h.125l.743-.403.118-.472c-.174-.18-.361-.48-.528-.854H3.7c-.195 0-.39-.215-.43-.479-.035-.208.034-.382.159-.451-.167-.847-.278-2.145 1.18-2.464.875-.195 1.187.479 1.222.555.527-.298.867.146.95.382.16.423.105 1.215.028 1.569.09.083.132.236.105.41-.042.256-.23.471-.424.478-.153.34-.368.632-.576.847l.118.472h.007l.722.403H6.9c.95 0 1.728.75 1.728 1.659V9.46h-7.08V8.115c0-.917.777-1.66 1.728-1.66l.007.008z" transform="translate(6 8)"/>
            <path fill="#FFF" d="M9.433 2.395h6.99v.652h-6.99v-.652zm0 3.908h3.499v.652H9.433v-.652zm0-1.305h6.99v.652h-6.99v-.652zm0-1.305h6.99v.652h-6.99v-.652z" transform="translate(6 8)"/>
        </g>
    </g>
</svg>
