<svg xmlns="http://www.w3.org/2000/svg" width="30" height="30" viewBox="0 0 30 30">
    <g fill="none">
        <circle cx="15" cy="15" r="15" fill="#FAB206"/>
        <g>
            <path fill="#F8F8F8" d="M2.18 7.744v10.093h14.803V7.744L9.456 1.725 2.18 7.745z" transform="translate(4.936 5.638)"/>
            <path fill="#EAEAED" d="M2.18 7.744L2.18 8.926 9.581 2.946 16.983 8.928 16.983 7.744 9.456 1.725zM13.676 2.52L15.519 2.52 15.519 4.973 13.676 4.973z" transform="translate(4.936 5.638)"/>
            <path fill="#128E71" d="M9.58 9.597h.002c1.646 0 2.993 1.348 2.993 2.992v5.248H6.59v-5.248c0-1.646 1.346-2.992 2.99-2.992z" transform="translate(4.936 5.638)"/>
            <path fill="#1BB792" d="M10.963 9.937c.956.502 1.612 1.505 1.612 2.652v5.248H7.31v-4.82c0-1.72 1.405-3.125 3.124-3.125.18 0 .357.016.529.045z" transform="translate(4.936 5.638)"/>
            <path fill="#325CA8" d="M9.581 0.018L9.56 0 0 7.726 1.166 8.67 9.581 1.87 17.995 8.67 19.163 7.726 9.601 0z" transform="translate(4.936 5.638)"/>
        </g>
    </g>
</svg>
