<svg xmlns="http://www.w3.org/2000/svg" width="30" height="30" viewBox="0 0 30 30">
    <g fill="none">
        <circle cx="15" cy="15" r="15" fill="#FAB206"/>
        <g>
            <path fill="#325CA8" d="M14.286.876v8.23c0 .488-.384.882-.858.882H3.936L1.665 12.32V9.988H.858C.39 9.988 0 9.594 0 9.106V.876C0 .394.383 0 .858 0h12.575c.475-.006.853.388.853.876z" transform="translate(5.625 6.563)"/>
            <g fill="#2B3B4E">
                <path d="M.05.006H10.676V1.006H.05zM.05 1.807H10.676V2.807H.05zM.05 3.602H10.676V4.602H.05zM.05 5.397H5.0809999999999995V6.397H.05z" transform="translate(5.625 6.563) translate(1.786 2.054)"/>
            </g>
            <path fill="#FFF" d="M18.75 6.015v8.226c0 .482-.383.882-.858.882h-.807v2.332l-2.271-2.332H5.322c-.469 0-.858-.394-.858-.882V6.015c0-.482.384-.881.858-.881h12.576c.469 0 .852.394.852.881z" transform="translate(5.625 6.563)"/>
            <g fill="#E6E9EE">
                <path d="M.039.03H10.665V1.03H.039zM.039 1.83H10.665V2.83H.039zM.039 3.625H10.665V4.625H.039zM.039 5.42H5.069999999999999V6.42H.039z" transform="translate(5.625 6.563) translate(6.25 7.188)"/>
            </g>
        </g>
    </g>
</svg>
