<svg xmlns="http://www.w3.org/2000/svg" width="30" height="30" viewBox="0 0 30 30">
    <g fill="none">
        <circle cx="15" cy="15" r="15" fill="#FAB206"/>
        <g transform="translate(9 5)">
            <path fill="#325CA8" d="M6.241 20.48h.268c.084-.36.456-1.003.627-1.341l2.026-4.144c.926-1.852 1.797-3.683 2.713-5.515 1.058-2.115 1.246-4.19-.003-6.347C10.884 1.426 8.827 0 6.777 0 5.247 0 4.193.145 2.93.982c-.856.565-1.47 1.184-2.02 2.094C-.385 5.226-.206 7.316.876 9.48c.158.316 5.267 10.574 5.366 11z"/>
            <circle cx="6.37" cy="6.26" r="5.29" fill="#F8F8F8"/>
            <g fill="#D43160">
                <path d="M5.23 2.23v.831H.02V2.23h5.21z" transform="translate(3.745 3.615)"/>
                <path d="M2.209.04h.832v5.21H2.21V.04z" transform="translate(3.745 3.615)"/>
            </g>
        </g>
    </g>
</svg>
