<svg xmlns="http://www.w3.org/2000/svg" width="30" height="30" viewBox="0 0 30 30">
    <g fill="none">
        <circle cx="15" cy="15" r="15" fill="#FAB206"/>
        <g>
            <path fill="#F8F8F8" d="M10.625 8.106c-1.394 0-2.519 1.132-2.519 2.519 0 1.387 1.132 2.519 2.519 2.519 1.387 0 2.519-1.132 2.519-2.519 0-1.387-1.125-2.519-2.519-2.519zm0 3.613c-.6 0-1.094-.488-1.094-1.094 0-.606.488-1.094 1.094-1.094.606 0 1.094.488 1.094 1.094 0 .606-.494 1.094-1.094 1.094z" transform="translate(4 4)"/>
            <path fill="#F9FAFC" stroke="#325CA8" d="M19.85 8.631l-1.338-.137c-.187-.688-.456-1.338-.806-1.938l.85-1.043c.5-.607.456-1.488-.1-2.044l-.675-.675c-.556-.557-1.437-.6-2.043-.1l-1.044.85c-.6-.35-1.25-.619-1.938-.807L12.62 1.4C12.544.619 11.887.025 11.1.025h-.956c-.788 0-1.438.588-1.519 1.375l-.137 1.337c-.688.188-1.338.457-1.938.807l-1.044-.85c-.606-.5-1.487-.457-2.044.1l-.675.675c-.556.556-.6 1.437-.1 2.044l.85 1.043c-.35.6-.618 1.25-.806 1.938l-1.337.137C.613 8.706.019 9.363.019 10.15v.956c0 .788.587 1.438 1.375 1.519l1.337.137c.188.688.457 1.338.807 1.938l-.85 1.044c-.5.606-.457 1.487.1 2.044l.675.674c.556.557 1.437.6 2.043.1l1.044-.85c.6.344 1.25.62 1.938.807l.137 1.337c.075.781.731 1.375 1.519 1.375h.956c.787 0 1.438-.587 1.519-1.375l.137-1.337c.688-.188 1.338-.456 1.938-.806l1.043.85c.607.5 1.488.456 2.044-.1l.675-.675c.556-.557.6-1.438.1-2.044l-.85-1.044c.344-.6.619-1.25.806-1.938l1.338-.137c.781-.075 1.375-.731 1.375-1.519v-.956c0-.787-.594-1.444-1.375-1.519zm-9.225 6.294c-2.375 0-4.3-1.925-4.3-4.3s1.925-4.3 4.3-4.3 4.3 1.925 4.3 4.3-1.925 4.3-4.3 4.3z" transform="translate(4 4)"/>
            <path fill="#E9E9E9" d="M10.625 4.956c-3.131 0-5.669 2.538-5.669 5.669s2.538 5.669 5.669 5.669 5.669-2.538 5.669-5.669-2.538-5.669-5.669-5.669zm0 9.969c-2.375 0-4.3-1.925-4.3-4.3s1.925-4.3 4.3-4.3 4.3 1.925 4.3 4.3-1.925 4.3-4.3 4.3z" transform="translate(4 4)"/>
        </g>
    </g>
</svg>
