<svg xmlns="http://www.w3.org/2000/svg" width="30" height="30" viewBox="0 0 30 30">
    <g fill="none">
        <circle cx="15" cy="15" r="15" fill="#FAB206"/>
        <g fill="#FFF">
            <path d="M1.843 4.846h.134l.785-.428.128-.5c-.507-.386-.848-1.065-.848-1.667v-.556c0-.906.772-1.648 1.716-1.648.945 0 1.717.742 1.717 1.648v.556c0 .602-.341 1.28-.848 1.667l.128.5h.011l.764.428h.145c1.008 0 1.832.794 1.832 1.76v6.349l-1.402-.003v6.747c0 .469-.61.853-1.099.853h-.221c-.489 0-.89-.384-.89-.853v-6.698h-.274V19.7c0 .47-.4.853-.888.853H2.51c-.489 0-1.099-.384-1.099-.853v-6.747l-1.402.003v-6.35c0-.967.824-1.759 1.833-1.759zM12.606 4.846h.134l.786-.428.127-.5c-.506-.386-.847-1.065-.847-1.667v-.556c0-.906.772-1.648 1.716-1.648S16.24.79 16.24 1.695v.556c0 .602-.342 1.28-.848 1.667l.128.5h.011l.763.428h.145c1.008 0 1.833.794 1.833 1.76v6.349l-1.402-.003v6.747c0 .469-.61.853-1.099.853h-.222c-.488 0-.888-.384-.888-.853v-6.698h-.275V19.7c0 .47-.4.853-.889.853h-.221c-.489 0-1.099-.384-1.099-.853v-6.747l-1.402.003v-6.35c0-.967.824-1.759 1.832-1.759z" transform="translate(5.86 5.45)"/>
        </g>
        <path fill="#325CA8" d="M12.944 9.148h.144l.842-.459.137-.536c-.543-.416-.909-1.143-.909-1.79v-.597C13.158 4.794 13.986 4 15 4c1.013 0 1.841.795 1.841 1.767v.597c0 .647-.366 1.374-.909 1.79l.137.536h.012l.82.46h.155c1.081 0 1.966.851 1.966 1.887v6.813l-1.504-.003v7.24c0 .503-.655.916-1.18.916H16.1c-.523 0-.953-.412-.953-.916V17.9h-.295v7.187c0 .503-.43.916-.953.916h-.238c-.524 0-1.179-.412-1.179-.916v-7.24l-1.505.003v-6.813c0-1.038.885-1.888 1.967-1.888z"/>
    </g>
</svg>
